<svg id="visual" viewBox="0 0 960 300" width="960" height="300" xmlns="http://www.w3.org/2000/svg" xmlns:xlink="http://www.w3.org/1999/xlink" version="1.1"><rect x="0" y="0" width="960" height="300" fill="#001220"></rect><path d="M0 67L11.5 66.7C23 66.3 46 65.7 68.8 67.7C91.7 69.7 114.3 74.3 137.2 75.7C160 77 183 75 205.8 74.2C228.7 73.3 251.3 73.7 274.2 71.8C297 70 320 66 342.8 63.2C365.7 60.3 388.3 58.7 411.2 61.5C434 64.3 457 71.7 480 73.3C503 75 526 71 548.8 67C571.7 63 594.3 59 617.2 61C640 63 663 71 685.8 71.7C708.7 72.3 731.3 65.7 754.2 65.5C777 65.3 800 71.7 822.8 75.2C845.7 78.7 868.3 79.3 891.2 78.7C914 78 937 76 948.5 75L960 74L960 0L948.5 0C937 0 914 0 891.2 0C868.3 0 845.7 0 822.8 0C800 0 777 0 754.2 0C731.3 0 708.7 0 685.8 0C663 0 640 0 617.2 0C594.3 0 571.7 0 548.8 0C526 0 503 0 480 0C457 0 434 0 411.2 0C388.3 0 365.7 0 342.8 0C320 0 297 0 274.2 0C251.3 0 228.7 0 205.8 0C183 0 160 0 137.2 0C114.3 0 91.7 0 68.8 0C46 0 23 0 11.5 0L0 0Z" fill="#eeeeee"></path><path d="M0 63L11.5 60.8C23 58.7 46 54.3 68.8 53.5C91.7 52.7 114.3 55.3 137.2 54.7C160 54 183 50 205.8 50.2C228.7 50.3 251.3 54.7 274.2 56.7C297 58.7 320 58.3 342.8 55.3C365.7 52.3 388.3 46.7 411.2 47.3C434 48 457 55 480 54.7C503 54.3 526 46.7 548.8 44.5C571.7 42.3 594.3 45.7 617.2 47.3C640 49 663 49 685.8 49.5C708.7 50 731.3 51 754.2 49.8C777 48.7 800 45.3 822.8 48.2C845.7 51 868.3 60 891.2 62.7C914 65.3 937 61.7 948.5 59.8L960 58L960 0L948.5 0C937 0 914 0 891.2 0C868.3 0 845.7 0 822.8 0C800 0 777 0 754.2 0C731.3 0 708.7 0 685.8 0C663 0 640 0 617.2 0C594.3 0 571.7 0 548.8 0C526 0 503 0 480 0C457 0 434 0 411.2 0C388.3 0 365.7 0 342.8 0C320 0 297 0 274.2 0C251.3 0 228.7 0 205.8 0C183 0 160 0 137.2 0C114.3 0 91.7 0 68.8 0C46 0 23 0 11.5 0L0 0Z" fill="#f6f6f6"></path><path d="M0 41L11.5 38.7C23 36.3 46 31.7 68.8 33.8C91.7 36 114.3 45 137.2 45C160 45 183 36 205.8 35.2C228.7 34.3 251.3 41.7 274.2 44.2C297 46.7 320 44.3 342.8 42.7C365.7 41 388.3 40 411.2 39.2C434 38.3 457 37.7 480 36.3C503 35 526 33 548.8 31.5C571.7 30 594.3 29 617.2 28.5C640 28 663 28 685.8 30.7C708.7 33.3 731.3 38.7 754.2 42C777 45.3 800 46.7 822.8 44.8C845.7 43 868.3 38 891.2 38.3C914 38.7 937 44.3 948.5 47.2L960 50L960 0L948.5 0C937 0 914 0 891.2 0C868.3 0 845.7 0 822.8 0C800 0 777 0 754.2 0C731.3 0 708.7 0 685.8 0C663 0 640 0 617.2 0C594.3 0 571.7 0 548.8 0C526 0 503 0 480 0C457 0 434 0 411.2 0C388.3 0 365.7 0 342.8 0C320 0 297 0 274.2 0C251.3 0 228.7 0 205.8 0C183 0 160 0 137.2 0C114.3 0 91.7 0 68.8 0C46 0 23 0 11.5 0L0 0Z" fill="#ffffff"></path><path d="M0 25L11.5 27C23 29 46 33 68.8 31.8C91.7 30.7 114.3 24.3 137.2 23.7C160 23 183 28 205.8 30.2C228.7 32.3 251.3 31.7 274.2 29C297 26.3 320 21.7 342.8 21C365.7 20.3 388.3 23.7 411.2 26.3C434 29 457 31 480 32.8C503 34.7 526 36.3 548.8 34.7C571.7 33 594.3 28 617.2 28C640 28 663 33 685.8 33.7C708.7 34.3 731.3 30.7 754.2 28.7C777 26.7 800 26.3 822.8 27.2C845.7 28 868.3 30 891.2 28.5C914 27 937 22 948.5 19.5L960 17L960 0L948.5 0C937 0 914 0 891.2 0C868.3 0 845.7 0 822.8 0C800 0 777 0 754.2 0C731.3 0 708.7 0 685.8 0C663 0 640 0 617.2 0C594.3 0 571.7 0 548.8 0C526 0 503 0 480 0C457 0 434 0 411.2 0C388.3 0 365.7 0 342.8 0C320 0 297 0 274.2 0C251.3 0 228.7 0 205.8 0C183 0 160 0 137.2 0C114.3 0 91.7 0 68.8 0C46 0 23 0 11.5 0L0 0Z" fill="#ffffff"></path><path d="M0 5L11.5 5.3C23 5.7 46 6.3 68.8 6.8C91.7 7.3 114.3 7.7 137.2 7.5C160 7.3 183 6.7 205.8 8C228.7 9.3 251.3 12.7 274.2 13.3C297 14 320 12 342.8 10.5C365.7 9 388.3 8 411.2 8.5C434 9 457 11 480 11.5C503 12 526 11 548.8 12.5C571.7 14 594.3 18 617.2 17.3C640 16.7 663 11.3 685.8 11.3C708.7 11.3 731.3 16.7 754.2 18.7C777 20.7 800 19.3 822.8 16.2C845.7 13 868.3 8 891.2 8.7C914 9.3 937 15.7 948.5 18.8L960 22L960 0L948.5 0C937 0 914 0 891.2 0C868.3 0 845.7 0 822.8 0C800 0 777 0 754.2 0C731.3 0 708.7 0 685.8 0C663 0 640 0 617.2 0C594.3 0 571.7 0 548.8 0C526 0 503 0 480 0C457 0 434 0 411.2 0C388.3 0 365.7 0 342.8 0C320 0 297 0 274.2 0C251.3 0 228.7 0 205.8 0C183 0 160 0 137.2 0C114.3 0 91.7 0 68.8 0C46 0 23 0 11.5 0L0 0Z" fill="#ffffff"></path></svg>