<svg id="visual" viewBox="0 0 960 300" width="960" height="300" xmlns="http://www.w3.org/2000/svg" xmlns:xlink="http://www.w3.org/1999/xlink" version="1.1"><rect x="0" y="0" width="960" height="300" fill="#001220"></rect><path d="M0 208L11.5 208.5C23 209 46 210 68.8 207.3C91.7 204.7 114.3 198.3 137.2 196.5C160 194.7 183 197.3 205.8 198.3C228.7 199.3 251.3 198.7 274.2 201.2C297 203.7 320 209.3 342.8 213.2C365.7 217 388.3 219 411.2 215.2C434 211.3 457 201.7 480 199.5C503 197.3 526 202.7 548.8 208C571.7 213.3 594.3 218.7 617.2 216C640 213.3 663 202.7 685.8 201.7C708.7 200.7 731.3 209.3 754.2 209.5C777 209.7 800 201.3 822.8 196.8C845.7 192.3 868.3 191.7 891.2 192.5C914 193.3 937 195.7 948.5 196.8L960 198L960 301L948.5 301C937 301 914 301 891.2 301C868.3 301 845.7 301 822.8 301C800 301 777 301 754.2 301C731.3 301 708.7 301 685.8 301C663 301 640 301 617.2 301C594.3 301 571.7 301 548.8 301C526 301 503 301 480 301C457 301 434 301 411.2 301C388.3 301 365.7 301 342.8 301C320 301 297 301 274.2 301C251.3 301 228.7 301 205.8 301C183 301 160 301 137.2 301C114.3 301 91.7 301 68.8 301C46 301 23 301 11.5 301L0 301Z" fill="#eeeeee"></path><path d="M0 214L11.5 217C23 220 46 226 68.8 227.2C91.7 228.3 114.3 224.7 137.2 225.5C160 226.3 183 231.7 205.8 231.2C228.7 230.7 251.3 224.3 274.2 221.7C297 219 320 220 342.8 224.2C365.7 228.3 388.3 235.7 411.2 234.7C434 233.7 457 224.3 480 224.8C503 225.3 526 235.7 548.8 238.5C571.7 241.3 594.3 236.7 617.2 234.3C640 232 663 232 685.8 231.3C708.7 230.7 731.3 229.3 754.2 231C777 232.7 800 237.3 822.8 233.5C845.7 229.7 868.3 217.3 891.2 213.7C914 210 937 215 948.5 217.5L960 220L960 301L948.5 301C937 301 914 301 891.2 301C868.3 301 845.7 301 822.8 301C800 301 777 301 754.2 301C731.3 301 708.7 301 685.8 301C663 301 640 301 617.2 301C594.3 301 571.7 301 548.8 301C526 301 503 301 480 301C457 301 434 301 411.2 301C388.3 301 365.7 301 342.8 301C320 301 297 301 274.2 301C251.3 301 228.7 301 205.8 301C183 301 160 301 137.2 301C114.3 301 91.7 301 68.8 301C46 301 23 301 11.5 301L0 301Z" fill="#f6f6f6"></path><path d="M0 243L11.5 246.2C23 249.3 46 255.7 68.8 252.8C91.7 250 114.3 238 137.2 237.8C160 237.7 183 249.3 205.8 250.3C228.7 251.3 251.3 241.7 274.2 238.5C297 235.3 320 238.7 342.8 240.8C365.7 243 388.3 244 411.2 245C434 246 457 247 480 248.8C503 250.7 526 253.3 548.8 255.3C571.7 257.3 594.3 258.7 617.2 259.5C640 260.3 663 260.7 685.8 257.2C708.7 253.7 731.3 246.3 754.2 241.8C777 237.3 800 235.7 822.8 238C845.7 240.3 868.3 246.7 891.2 246.2C914 245.7 937 238.3 948.5 234.7L960 231L960 301L948.5 301C937 301 914 301 891.2 301C868.3 301 845.7 301 822.8 301C800 301 777 301 754.2 301C731.3 301 708.7 301 685.8 301C663 301 640 301 617.2 301C594.3 301 571.7 301 548.8 301C526 301 503 301 480 301C457 301 434 301 411.2 301C388.3 301 365.7 301 342.8 301C320 301 297 301 274.2 301C251.3 301 228.7 301 205.8 301C183 301 160 301 137.2 301C114.3 301 91.7 301 68.8 301C46 301 23 301 11.5 301L0 301Z" fill="#ffffff"></path><path d="M0 265L11.5 262.2C23 259.3 46 253.7 68.8 255C91.7 256.3 114.3 264.7 137.2 265.5C160 266.3 183 259.7 205.8 257C228.7 254.3 251.3 255.7 274.2 259.3C297 263 320 269 342.8 269.8C365.7 270.7 388.3 266.3 411.2 262.8C434 259.3 457 256.7 480 254.2C503 251.7 526 249.3 548.8 251.5C571.7 253.7 594.3 260.3 617.2 260.3C640 260.3 663 253.7 685.8 252.8C708.7 252 731.3 257 754.2 259.7C777 262.3 800 262.7 822.8 261.5C845.7 260.3 868.3 257.7 891.2 259.7C914 261.7 937 268.3 948.5 271.7L960 275L960 301L948.5 301C937 301 914 301 891.2 301C868.3 301 845.7 301 822.8 301C800 301 777 301 754.2 301C731.3 301 708.7 301 685.8 301C663 301 640 301 617.2 301C594.3 301 571.7 301 548.8 301C526 301 503 301 480 301C457 301 434 301 411.2 301C388.3 301 365.7 301 342.8 301C320 301 297 301 274.2 301C251.3 301 228.7 301 205.8 301C183 301 160 301 137.2 301C114.3 301 91.7 301 68.8 301C46 301 23 301 11.5 301L0 301Z" fill="#ffffff"></path><path d="M0 291L11.5 290.5C23 290 46 289 68.8 288.3C91.7 287.7 114.3 287.3 137.2 287.7C160 288 183 289 205.8 287.2C228.7 285.3 251.3 280.7 274.2 279.8C297 279 320 282 342.8 284.2C365.7 286.3 388.3 287.7 411.2 287C434 286.3 457 283.7 480 283C503 282.3 526 283.7 548.8 281.5C571.7 279.3 594.3 273.7 617.2 274.5C640 275.3 663 282.7 685.8 282.7C708.7 282.7 731.3 275.3 754.2 272.5C777 269.7 800 271.3 822.8 275.7C845.7 280 868.3 287 891.2 286.3C914 285.7 937 277.3 948.5 273.2L960 269L960 301L948.5 301C937 301 914 301 891.2 301C868.3 301 845.7 301 822.8 301C800 301 777 301 754.2 301C731.3 301 708.7 301 685.8 301C663 301 640 301 617.2 301C594.3 301 571.7 301 548.8 301C526 301 503 301 480 301C457 301 434 301 411.2 301C388.3 301 365.7 301 342.8 301C320 301 297 301 274.2 301C251.3 301 228.7 301 205.8 301C183 301 160 301 137.2 301C114.3 301 91.7 301 68.8 301C46 301 23 301 11.5 301L0 301Z" fill="#ffffff"></path></svg>