<svg id="visual" viewBox="0 0 960 300" width="960" height="300" xmlns="http://www.w3.org/2000/svg" xmlns:xlink="http://www.w3.org/1999/xlink" version="1.1"><rect x="0" y="0" width="960" height="300" fill="#001220"></rect><path d="M0 141L20 135.8C40 130.7 80 120.3 120 120.5C160 120.7 200 131.3 240 136.5C280 141.7 320 141.3 360 134.5C400 127.7 440 114.3 480 114.8C520 115.3 560 129.7 600 134.8C640 140 680 136 720 135.5C760 135 800 138 840 131.7C880 125.3 920 109.7 940 101.8L960 94L960 0L940 0C920 0 880 0 840 0C800 0 760 0 720 0C680 0 640 0 600 0C560 0 520 0 480 0C440 0 400 0 360 0C320 0 280 0 240 0C200 0 160 0 120 0C80 0 40 0 20 0L0 0Z" fill="#c0caff"></path><path d="M0 90L20 94.8C40 99.7 80 109.3 120 114.5C160 119.7 200 120.3 240 118.3C280 116.3 320 111.7 360 109.5C400 107.3 440 107.7 480 108C520 108.3 560 108.7 600 104.7C640 100.7 680 92.3 720 94.3C760 96.3 800 108.7 840 111.5C880 114.3 920 107.7 940 104.3L960 101L960 0L940 0C920 0 880 0 840 0C800 0 760 0 720 0C680 0 640 0 600 0C560 0 520 0 480 0C440 0 400 0 360 0C320 0 280 0 240 0C200 0 160 0 120 0C80 0 40 0 20 0L0 0Z" fill="#b6c0ff"></path><path d="M0 61L20 65.7C40 70.3 80 79.7 120 80.2C160 80.7 200 72.3 240 70.3C280 68.3 320 72.7 360 74.2C400 75.7 440 74.3 480 74.3C520 74.3 560 75.7 600 77.8C640 80 680 83 720 80.7C760 78.3 800 70.7 840 66.8C880 63 920 63 940 63L960 63L960 0L940 0C920 0 880 0 840 0C800 0 760 0 720 0C680 0 640 0 600 0C560 0 520 0 480 0C440 0 400 0 360 0C320 0 280 0 240 0C200 0 160 0 120 0C80 0 40 0 20 0L0 0Z" fill="#acb5ff"></path><path d="M0 76L20 75.3C40 74.7 80 73.3 120 72.3C160 71.3 200 70.7 240 71.8C280 73 320 76 360 76.8C400 77.7 440 76.3 480 76.3C520 76.3 560 77.7 600 74C640 70.3 680 61.7 720 57C760 52.3 800 51.7 840 52.3C880 53 920 55 940 56L960 57L960 0L940 0C920 0 880 0 840 0C800 0 760 0 720 0C680 0 640 0 600 0C560 0 520 0 480 0C440 0 400 0 360 0C320 0 280 0 240 0C200 0 160 0 120 0C80 0 40 0 20 0L0 0Z" fill="#a2abff"></path><path d="M0 36L20 39.8C40 43.7 80 51.3 120 54.8C160 58.3 200 57.7 240 53.2C280 48.7 320 40.3 360 38.7C400 37 440 42 480 42.8C520 43.7 560 40.3 600 42C640 43.7 680 50.3 720 49.5C760 48.7 800 40.3 840 39.3C880 38.3 920 44.7 940 47.8L960 51L960 0L940 0C920 0 880 0 840 0C800 0 760 0 720 0C680 0 640 0 600 0C560 0 520 0 480 0C440 0 400 0 360 0C320 0 280 0 240 0C200 0 160 0 120 0C80 0 40 0 20 0L0 0Z" fill="#97a1ff"></path><path d="M0 27L20 27.8C40 28.7 80 30.3 120 31.5C160 32.7 200 33.3 240 30C280 26.7 320 19.3 360 15.8C400 12.3 440 12.7 480 14.3C520 16 560 19 600 21.7C640 24.3 680 26.7 720 25.8C760 25 800 21 840 19.8C880 18.7 920 20.3 940 21.2L960 22L960 0L940 0C920 0 880 0 840 0C800 0 760 0 720 0C680 0 640 0 600 0C560 0 520 0 480 0C440 0 400 0 360 0C320 0 280 0 240 0C200 0 160 0 120 0C80 0 40 0 20 0L0 0Z" fill="#8c97ff"></path></svg>