<svg id="visual" viewBox="0 0 960 150" width="960" height="150" xmlns="http://www.w3.org/2000/svg" xmlns:xlink="http://www.w3.org/1999/xlink" version="1.1"><rect x="0" y="0" width="960" height="150" fill="#001220"></rect><path d="M0 55L16 54.8C32 54.7 64 54.3 96 52C128 49.7 160 45.3 192 42.8C224 40.3 256 39.7 288 41.2C320 42.7 352 46.3 384 48.7C416 51 448 52 480 50C512 48 544 43 576 40C608 37 640 36 672 38.2C704 40.3 736 45.7 768 47.2C800 48.7 832 46.3 864 43.7C896 41 928 38 944 36.5L960 35L960 0L944 0C928 0 896 0 864 0C832 0 800 0 768 0C736 0 704 0 672 0C640 0 608 0 576 0C544 0 512 0 480 0C448 0 416 0 384 0C352 0 320 0 288 0C256 0 224 0 192 0C160 0 128 0 96 0C64 0 32 0 16 0L0 0Z" fill="#1A324C" stroke-linecap="round" stroke-linejoin="miter"></path></svg>