<svg id="visual" viewBox="0 0 960 300" width="960" height="300" xmlns="http://www.w3.org/2000/svg" xmlns:xlink="http://www.w3.org/1999/xlink" version="1.1"><rect x="0" y="0" width="960" height="300" fill="#1a324c"></rect><path d="M0 115L22.8 116.8C45.7 118.7 91.3 122.3 137 133C182.7 143.7 228.3 161.3 274 163.8C319.7 166.3 365.3 153.7 411.2 144.3C457 135 503 129 548.8 127.7C594.7 126.3 640.3 129.7 686 141.2C731.7 152.7 777.3 172.3 823 170.8C868.7 169.3 914.3 146.7 937.2 135.3L960 124L960 301L937.2 301C914.3 301 868.7 301 823 301C777.3 301 731.7 301 686 301C640.3 301 594.7 301 548.8 301C503 301 457 301 411.2 301C365.3 301 319.7 301 274 301C228.3 301 182.7 301 137 301C91.3 301 45.7 301 22.8 301L0 301Z" fill="#001220" stroke-linecap="round" stroke-linejoin="miter"></path></svg>